<?xml version="1.0" encoding="utf-8"?>
<!-- Generator: Adobe Illustrator 16.0.0, SVG Export Plug-In . SVG Version: 6.00 Build 0)  -->
<!DOCTYPE svg PUBLIC "-//W3C//DTD SVG 1.1//EN" "http://www.w3.org/Graphics/SVG/1.1/DTD/svg11.dtd">
<svg version="1.1" xmlns="http://www.w3.org/2000/svg" xmlns:xlink="http://www.w3.org/1999/xlink" x="0px" y="0px"
	 width="237.122px" height="243.182px" viewBox="0 0 237.122 243.182" enable-background="new 0 0 237.122 243.182"
	 xml:space="preserve">
<g id="Layer_1" display="none">
	<path display="inline" fill="#808080" d="M169.525,96.005l-47.161,26.985v-0.027l-95.668,55.379l94.668,49.283v1.018
		c0,0,92.582-41.953,99.922-63.286S169.525,96.005,169.525,96.005z"/>
	<path display="inline" fill="#29ABE2" d="M218.242,61.367l-95.387-49.788l-0.491,0.141v-0.313c0,0-92.758,41.953-100.092,63.286
		s51.469,69.352,51.469,69.352l47.623-26.991v0.03L218.242,61.367z"/>
</g>
<g id="Layer_2">
	<path fill="#808080" d="M216.917,178.706l-94.553-54.779v0.027l-46.77-26.695c0,0-58.398,47.5-51.137,68.603
		c7.261,21.103,98.907,62.602,98.907,62.602v-1.03L216.917,178.706z"/>
	<path fill="#F7931E" d="M221.297,76.177c-7.254-21.103-98.934-62.603-98.934-62.603V13.9l-0.604-0.155l-94.292,49.25l95.896,55.114
		v-0.028l47.001,26.699C170.365,144.78,228.553,97.28,221.297,76.177z"/>
</g>
</svg>
