<?xml version="1.0" standalone="no"?><!DOCTYPE svg PUBLIC "-//W3C//DTD SVG 1.1//EN" "http://www.w3.org/Graphics/SVG/1.1/DTD/svg11.dtd"><svg width="100%" height="100%" viewBox="0 0 582 491" version="1.1" xmlns="http://www.w3.org/2000/svg" xmlns:xlink="http://www.w3.org/1999/xlink" xml:space="preserve" style="fill-rule:evenodd;clip-rule:evenodd;stroke-linejoin:round;stroke-miterlimit:1.41421;"><g id="Layer 1"><g><path d="M384.231,128.85c0,0 71.801,-9.523 84.281,-12.938l3.539,142.805" style="fill:#939598;fill-rule:nonzero;"/><path d="M474.051,258.668l-3.999,0.099l-3.478,-140.331l-0.195,0.043l-0.225,0.049l-0.229,0.049l-0.234,0.049l-0.238,0.05l-0.242,0.05l-0.247,0.051l-0.252,0.051l-0.255,0.051l-0.26,0.052l-0.264,0.052l-0.268,0.053l-0.273,0.053l-0.276,0.053l-0.281,0.054l-0.284,0.054l-0.289,0.055l-0.292,0.055l-0.297,0.055l-0.3,0.056l-0.304,0.056l-0.307,0.056l-0.312,0.057l-0.315,0.057l-0.319,0.057l-0.322,0.058l-0.326,0.058l-0.33,0.058l-0.333,0.059l-0.336,0.059l-0.34,0.059l-0.343,0.06l-0.346,0.06l-0.35,0.06l-0.352,0.061l-0.356,0.06l-0.359,0.061l-0.362,0.062l-0.365,0.061l-0.368,0.062l-0.371,0.062l-0.374,0.063l-0.376,0.062l-0.38,0.063l-0.382,0.063l-0.385,0.064l-0.387,0.063l-0.39,0.064l-0.393,0.064l-0.395,0.064l-0.397,0.065l-0.4,0.064l-0.402,0.065l-0.405,0.065l-0.407,0.065l-0.82,0.131l-0.829,0.132l-0.837,0.132l-0.845,0.133l-0.852,0.133l-0.859,0.134l-0.866,0.134l-0.873,0.134l-0.878,0.135l-0.883,0.135l-0.889,0.136l-0.894,0.135l-0.898,0.136l-0.902,0.136l-0.906,0.136l-0.909,0.137l-0.913,0.136l-0.914,0.136l-0.917,0.136l-0.919,0.136l-0.92,0.135l-0.921,0.136l-0.922,0.135l-0.922,0.135l-0.922,0.134l-0.922,0.134l-0.921,0.134l-0.92,0.133l-0.918,0.132l-0.916,0.132l-0.914,0.132l-0.911,0.131l-0.909,0.13l-0.904,0.129l-0.902,0.128l-0.896,0.128l-0.893,0.126l-0.887,0.126l-0.882,0.125l-0.876,0.124l-0.871,0.122l-0.864,0.122l-0.857,0.12l-0.85,0.119l-0.842,0.118l-0.835,0.117l-1.643,0.229l-1.608,0.223l-1.568,0.218l-1.526,0.211l-1.481,0.204l-1.433,0.197l-1.382,0.189l-1.327,0.181l-1.27,0.174l-1.21,0.165l-1.147,0.155l-1.081,0.147l-1.011,0.137l-0.94,0.126l-0.864,0.117l-0.786,0.106l-1.325,0.177l-0.977,0.131l-0.603,0.08l-0.207,0.028l-0.527,-3.965l0.206,-0.028l0.602,-0.08l0.975,-0.13l1.324,-0.178l0.785,-0.105l0.863,-0.117l0.938,-0.126l1.01,-0.137l1.08,-0.146l1.146,-0.156l1.209,-0.165l1.269,-0.173l1.326,-0.181l1.38,-0.189l1.431,-0.197l1.48,-0.204l1.525,-0.211l1.566,-0.217l1.606,-0.223l1.642,-0.229l0.834,-0.116l0.841,-0.118l0.849,-0.119l0.857,-0.12l0.863,-0.122l0.869,-0.122l0.875,-0.124l0.881,-0.124l0.887,-0.126l0.891,-0.127l0.896,-0.127l0.9,-0.128l0.903,-0.129l0.907,-0.13l0.91,-0.131l0.913,-0.131l0.915,-0.132l0.917,-0.132l0.918,-0.133l0.92,-0.133l0.92,-0.134l0.921,-0.134l0.921,-0.135l0.92,-0.135l0.919,-0.135l0.919,-0.136l0.917,-0.135l0.915,-0.136l0.913,-0.136l0.91,-0.136l0.907,-0.135l0.904,-0.136l0.901,-0.136l0.896,-0.135l0.891,-0.136l0.887,-0.135l0.881,-0.135l0.876,-0.134l0.869,-0.134l0.864,-0.134l0.856,-0.133l0.85,-0.133l0.842,-0.132l0.834,-0.132l0.825,-0.131l0.818,-0.13l0.405,-0.065l0.402,-0.065l0.401,-0.065l0.398,-0.064l0.396,-0.064l0.393,-0.064l0.39,-0.064l0.388,-0.063l0.386,-0.063l0.382,-0.063l0.38,-0.063l0.378,-0.062l0.374,-0.063l0.371,-0.062l0.369,-0.061l0.365,-0.062l0.363,-0.061l0.359,-0.061l0.357,-0.061l0.353,-0.06l0.35,-0.06l0.346,-0.06l0.344,-0.059l0.34,-0.059l0.336,-0.059l0.333,-0.059l0.33,-0.058l0.326,-0.057l0.322,-0.058l0.319,-0.057l0.315,-0.057l0.311,-0.056l0.308,-0.056l0.304,-0.056l0.299,-0.055l0.296,-0.055l0.292,-0.054l0.288,-0.054l0.283,-0.054l0.28,-0.053l0.275,-0.053l0.271,-0.052l0.266,-0.052l0.263,-0.051l0.258,-0.051l0.253,-0.051l0.249,-0.05l0.244,-0.05l0.239,-0.049l0.235,-0.048l0.23,-0.048l0.226,-0.048l0.22,-0.047l0.215,-0.047l0.211,-0.046l0.205,-0.045l0.2,-0.045l0.195,-0.044l0.19,-0.044l0.184,-0.043l0.179,-0.042l0.173,-0.042l0.169,-0.042l0.081,-0.02l0.08,-0.02l0.079,-0.02l0.077,-0.019l0.076,-0.02l0.074,-0.019l0.073,-0.02l0.072,-0.019l0.07,-0.018l2.532,-0.689l3.602,145.355Z" style="fill:#231f20;"/></g><g><path d="M384.231,121.5c2.282,0.379 95.624,29.596 106.627,29.975l-16.301,110.107" style="fill:#bbbdc0;fill-rule:nonzero;"/><path d="M384.612,119.536l0.046,0.009l0.041,0.009l0.042,0.009l0.07,0.016l0.076,0.019l0.079,0.02l0.082,0.021l0.089,0.024l0.095,0.026l0.102,0.027l0.108,0.03l0.115,0.033l0.123,0.034l0.129,0.037l0.137,0.039l0.143,0.041l0.151,0.044l0.323,0.094l0.351,0.102l0.379,0.112l0.406,0.12l0.433,0.128l0.46,0.137l0.487,0.145l0.511,0.153l0.538,0.161l0.562,0.169l0.586,0.176l0.61,0.184l1.289,0.389l1.379,0.416l1.465,0.443l1.546,0.468l3.322,1.005l1.767,0.535l1.833,0.555l1.895,0.573l1.953,0.59l2.007,0.607l2.057,0.62l1.046,0.316l1.057,0.318l1.067,0.322l1.078,0.324l1.087,0.327l1.096,0.329l1.104,0.332l1.113,0.333l1.12,0.336l1.127,0.338l1.133,0.339l1.14,0.341l1.145,0.342l1.15,0.343l1.155,0.344l1.159,0.345l1.163,0.346l1.165,0.346l1.168,0.346l1.17,0.347l1.172,0.346l1.173,0.347l1.173,0.346l1.173,0.345l1.173,0.345l1.172,0.344l1.171,0.344l1.169,0.341l1.166,0.341l1.164,0.339l1.16,0.338l1.156,0.335l1.152,0.334l0.574,0.166l0.573,0.165l0.571,0.165l0.57,0.164l0.569,0.164l0.567,0.163l0.565,0.162l0.564,0.162l0.562,0.161l0.56,0.16l0.558,0.16l0.557,0.158l0.554,0.158l0.553,0.157l0.55,0.157l0.549,0.155l0.546,0.155l0.543,0.153l0.542,0.153l0.539,0.152l0.536,0.151l0.534,0.15l0.532,0.148l0.528,0.148l0.526,0.147l0.523,0.146l0.521,0.145l0.517,0.143l0.515,0.143l0.511,0.141l0.508,0.14l0.506,0.139l0.502,0.138l0.498,0.137l0.496,0.135l0.491,0.134l0.489,0.133l0.485,0.131l0.481,0.131l0.478,0.128l0.473,0.128l0.471,0.126l0.466,0.124l0.462,0.124l0.458,0.121l0.455,0.121l0.45,0.118l0.446,0.118l0.441,0.115l0.438,0.115l0.433,0.112l0.429,0.111l0.424,0.109l0.419,0.108l0.415,0.106l0.41,0.105l0.406,0.102l0.401,0.101l0.395,0.099l0.391,0.098l0.386,0.095l0.381,0.094l0.375,0.092l0.37,0.09l0.365,0.088l0.36,0.087l0.354,0.084l0.349,0.082l0.343,0.081l0.337,0.078l0.332,0.077l0.327,0.074l0.16,0.037l0.159,0.036l0.158,0.035l0.156,0.035l0.155,0.034l0.154,0.034l0.151,0.034l0.151,0.032l0.148,0.033l0.148,0.031l0.145,0.032l0.144,0.03l0.143,0.03l0.14,0.03l0.14,0.029l0.137,0.028l0.136,0.028l0.135,0.027l0.132,0.027l0.131,0.026l0.13,0.026l0.127,0.025l0.126,0.024l0.125,0.024l0.122,0.023l0.121,0.023l0.119,0.022l0.118,0.022l0.115,0.021l0.114,0.02l0.111,0.02l0.111,0.019l0.108,0.018l0.106,0.018l0.105,0.017l0.102,0.017l0.101,0.016l0.099,0.016l0.097,0.014l0.095,0.015l0.092,0.013l0.091,0.013l0.089,0.013l0.087,0.011l0.084,0.011l0.083,0.011l0.08,0.01l0.078,0.009l0.075,0.008l0.074,0.008l0.071,0.007l0.069,0.007l0.067,0.006l0.063,0.005l0.062,0.005l0.059,0.004l0.056,0.004l0.053,0.003l0.05,0.002l2.284,0.089l-16.627,112.312l-3.957,-0.586l15.998,-108.059l-0.109,-0.018l-0.114,-0.018l-0.116,-0.02l-0.116,-0.019l-0.119,-0.02l-0.12,-0.021l-0.121,-0.022l-0.123,-0.022l-0.125,-0.022l-0.126,-0.023l-0.127,-0.024l-0.129,-0.024l-0.131,-0.025l-0.132,-0.025l-0.133,-0.026l-0.135,-0.027l-0.136,-0.027l-0.138,-0.027l-0.14,-0.028l-0.14,-0.029l-0.142,-0.029l-0.144,-0.03l-0.145,-0.03l-0.147,-0.031l-0.148,-0.031l-0.149,-0.032l-0.151,-0.032l-0.153,-0.033l-0.153,-0.033l-0.156,-0.034l-0.156,-0.034l-0.158,-0.035l-0.16,-0.036l-0.161,-0.035l-0.162,-0.037l-0.163,-0.037l-0.166,-0.037l-0.333,-0.076l-0.34,-0.079l-0.345,-0.08l-0.35,-0.082l-0.356,-0.084l-0.36,-0.086l-0.366,-0.088l-0.371,-0.09l-0.376,-0.091l-0.382,-0.093l-0.386,-0.096l-0.391,-0.096l-0.395,-0.099l-0.401,-0.1l-0.405,-0.103l-0.41,-0.103l-0.415,-0.106l-0.419,-0.107l-0.424,-0.109l-0.428,-0.11l-0.432,-0.112l-0.437,-0.114l-0.441,-0.115l-0.446,-0.116l-0.449,-0.118l-0.453,-0.12l-0.458,-0.121l-0.461,-0.123l-0.466,-0.124l-0.469,-0.125l-0.473,-0.127l-0.477,-0.128l-0.48,-0.13l-0.484,-0.131l-0.487,-0.132l-0.491,-0.133l-0.495,-0.135l-0.497,-0.136l-0.501,-0.137l-0.505,-0.139l-0.507,-0.139l-0.51,-0.141l-0.514,-0.142l-0.516,-0.143l-0.52,-0.144l-0.522,-0.146l-0.525,-0.146l-0.528,-0.147l-0.531,-0.149l-0.533,-0.149l-0.536,-0.15l-0.538,-0.152l-0.541,-0.152l-0.543,-0.153l-0.545,-0.154l-0.548,-0.155l-0.549,-0.156l-0.552,-0.157l-0.554,-0.158l-0.556,-0.158l-0.558,-0.159l-0.56,-0.16l-0.562,-0.16l-0.563,-0.162l-0.565,-0.162l-0.567,-0.163l-0.568,-0.163l-0.57,-0.164l-0.571,-0.165l-0.573,-0.165l-0.574,-0.165l-0.575,-0.167l-1.154,-0.334l-1.158,-0.336l-1.162,-0.338l-1.166,-0.34l-1.168,-0.341l-1.171,-0.343l-1.172,-0.343l-1.174,-0.345l-1.175,-0.345l-1.175,-0.346l-1.175,-0.347l-1.174,-0.347l-1.173,-0.347l-1.172,-0.347l-1.169,-0.347l-1.167,-0.346l-1.163,-0.346l-1.161,-0.345l-1.156,-0.345l-1.151,-0.343l-1.146,-0.343l-1.141,-0.341l-1.134,-0.339l-1.129,-0.338l-1.12,-0.336l-1.114,-0.334l-1.105,-0.332l-1.097,-0.33l-1.088,-0.327l-1.078,-0.324l-1.068,-0.322l-1.057,-0.319l-1.047,-0.315l-2.058,-0.621l-2.008,-0.607l-1.953,-0.59l-1.896,-0.574l-1.834,-0.554l-1.767,-0.536l-3.321,-1.005l-1.546,-0.467l-1.463,-0.443l-1.378,-0.416l-1.288,-0.388l-0.609,-0.183l-0.584,-0.176l-0.56,-0.168l-0.536,-0.161l-0.509,-0.152l-0.484,-0.144l-0.457,-0.136l-0.429,-0.128l-0.402,-0.118l-0.374,-0.11l-0.345,-0.101l-0.315,-0.092l-0.146,-0.042l-0.139,-0.04l-0.13,-0.037l-0.123,-0.035l-0.115,-0.032l-0.106,-0.03l-0.098,-0.027l-0.09,-0.025l-0.08,-0.022l-0.07,-0.018l-0.061,-0.016l-0.048,-0.012l-0.036,-0.009l-0.024,-0.006l0.021,0.005l0.697,-3.939l0.032,0.005Z" style="fill:#231f20;"/></g><path d="M381.931,129.198c0,0 71.609,-2.478 94.609,-3.478c0,0 -2.5,151.855 -9.5,169.178l-101.853,-4.861l0,-160.817l16.744,-0.022" style="fill:#fff;fill-rule:nonzero;"/><path d="M381.931,129.198l23.637,-1.26l23.64,-1.181l23.641,-1.176l23.645,-1.059l1.257,-0.057l-0.011,1.275c-0.137,14.145 -0.359,28.281 -0.633,42.422l-0.484,21.208l-0.68,21.206c-0.522,14.137 -1.076,28.276 -1.977,42.41c-0.448,7.067 -0.948,14.134 -1.614,21.205c-0.345,3.537 -0.705,7.071 -1.201,10.618c-0.222,1.769 -0.529,3.551 -0.84,5.333c-0.159,0.892 -0.39,1.802 -0.584,2.701c-0.181,0.893 -0.561,1.872 -0.843,2.8l-0.401,1.315l-1.537,-0.074l-50.925,-2.478l-50.919,-2.586l-1.706,-0.087l0.007,-1.696l0.084,-20.102l0.15,-20.102l0.325,-40.204l0.163,-20.102c0.04,-6.701 0.139,-13.402 0.228,-20.102l0.536,-40.205l0.004,-0.303l0.294,0.005l16.744,0.276l-16.744,0.32l0.298,-0.298l0.536,40.205c0.089,6.7 0.187,13.401 0.227,20.102l0.489,60.306l0.15,20.102l0.084,20.102l-1.699,-1.782l50.934,2.274l50.929,2.382l-1.938,1.242l0.352,-1.114c0.122,-0.367 0.247,-0.734 0.328,-1.161c0.177,-0.828 0.388,-1.632 0.542,-2.478c0.301,-1.7 0.6,-3.4 0.823,-5.137c0.493,-3.453 0.86,-6.951 1.21,-10.448c0.678,-7.002 1.196,-14.037 1.662,-21.076c0.899,-14.083 1.64,-28.19 2.256,-42.304l0.856,-21.176l0.802,-21.183c0.501,-14.122 0.95,-28.252 1.313,-42.376l1.246,1.218l-23.66,0.679l-23.664,0.564l-23.664,0.558l-23.668,0.479Z" style="fill:#231f20;fill-rule:nonzero;"/><path d="M375.782,141.721l-0.619,70.253l-0.783,70.252l-0.364,-0.369l89.5,-0.127l-0.488,0.453l11.186,-146.484l0.326,0.324l-49.375,2.9l-49.383,2.798ZM375.782,141.721l49.352,-3.202l49.359,-3.1l0.352,-0.022l-0.026,0.347l-10.814,146.514l-0.034,0.453l-0.455,0l-89.5,-0.127l-0.368,0l0.005,-0.367l0.983,-70.249l1.146,-70.247Z" style="fill:#231f20;fill-rule:nonzero;"/><path d="M467.04,145.22c0,0 -1.061,1.49 -2.998,4.026c-1.937,2.536 -4.733,6.132 -8.204,10.346c-1.731,2.11 -3.602,4.401 -5.643,6.767c-2.028,2.378 -4.15,4.901 -6.411,7.452c-4.497,5.123 -9.378,10.513 -14.356,15.814c-2.495,2.645 -4.997,5.284 -7.503,7.842c-2.484,2.578 -4.984,5.065 -7.41,7.463c-2.411,2.413 -4.825,4.669 -7.096,6.822c-2.247,2.175 -4.473,4.141 -6.507,5.967c-2.008,1.851 -3.967,3.441 -5.664,4.877c-1.672,1.46 -3.278,2.596 -4.531,3.581c-1.235,1.008 -2.37,1.63 -3.071,2.111c-0.721,0.455 -1.106,0.699 -1.106,0.699c0,0 0.325,-0.324 0.935,-0.929c0.606,-0.61 1.521,-1.43 2.583,-2.626c1.068,-1.185 2.402,-2.555 3.869,-4.219c1.476,-1.646 3.141,-3.503 4.959,-5.528c1.816,-2.027 3.784,-4.221 5.865,-6.543c2.088,-2.316 4.289,-4.758 6.566,-7.284c2.299,-2.507 4.675,-5.097 7.089,-7.729c2.434,-2.615 4.906,-5.27 7.379,-7.926c2.499,-2.632 4.998,-5.264 7.458,-7.856c2.47,-2.581 4.916,-5.108 7.298,-7.541c2.375,-2.44 4.714,-4.758 6.92,-6.968c2.196,-2.219 4.313,-4.28 6.272,-6.18c3.901,-3.812 7.23,-6.919 9.578,-9.079c2.347,-2.16 3.729,-3.359 3.729,-3.359" style="fill:#231f20;fill-rule:nonzero;"/><path d="M413.54,210.309c0,0 3.287,3.194 7.911,8.237c1.159,1.259 2.415,2.621 3.711,4.091c1.303,1.463 2.689,2.995 4.075,4.619c1.39,1.622 2.86,3.271 4.291,4.996c1.441,1.718 2.905,3.464 4.367,5.209c1.438,1.767 2.874,3.535 4.289,5.275c1.427,1.73 2.763,3.488 4.093,5.159c2.638,3.36 5.051,6.537 7.076,9.296c4.076,5.496 6.586,9.331 6.586,9.331c0,0 -3.289,-3.192 -7.914,-8.235c-2.324,-2.511 -4.986,-5.483 -7.786,-8.71c-1.388,-1.623 -2.861,-3.268 -4.289,-4.997c-1.44,-1.719 -2.903,-3.464 -4.366,-5.21c-1.437,-1.768 -2.873,-3.536 -4.287,-5.276c-1.423,-1.733 -2.763,-3.489 -4.092,-5.16c-1.332,-1.67 -2.574,-3.321 -3.764,-4.877c-1.197,-1.551 -2.297,-3.042 -3.312,-4.419c-4.076,-5.496 -6.589,-9.329 -6.589,-9.329" style="fill:#231f20;fill-rule:nonzero;"/><path d="M398.702,134.443l-2.109,3.399l-11.752,-7.292l2.109,-3.399l11.752,7.292Z" style="fill:#ed1c24;"/><path d="M409.636,134.443l-2.109,3.399l-11.753,-7.292l2.109,-3.399l11.753,7.292Z" style="fill:#1375bc;"/><path d="M420.265,134.443l-2.109,3.399l-11.752,-7.292l2.109,-3.399l11.752,7.292Z" style="fill:#ed1c24;"/><path d="M431.197,134.443l-2.109,3.399l-11.752,-7.292l2.109,-3.399l11.752,7.292Z" style="fill:#1375bc;"/><path d="M442.948,134.443l-2.109,3.399l-11.752,-7.292l2.109,-3.399l11.752,7.292Z" style="fill:#ed1c24;"/><path d="M453.88,134.443l-2.109,3.399l-11.752,-7.292l2.109,-3.399l11.752,7.292Z" style="fill:#1375bc;"/><path d="M464.512,134.443l-2.109,3.399l-11.753,-7.292l2.109,-3.399l11.753,7.292Z" style="fill:#ed1c24;"/><path d="M475.443,134.443l-2.109,3.399l-11.752,-7.292l2.109,-3.399l11.752,7.292Z" style="fill:#1375bc;"/><path d="M477.64,139.825l-7.561,16.008l-3.616,-1.709l7.561,-16.008l3.616,1.709Z" style="fill:#ed1c24;"/><path d="M477.412,154.819l-7.562,16.007l-3.617,-1.708l7.562,-16.007l3.617,1.708Z" style="fill:#1375bc;"/><path d="M477.189,169.399l-7.562,16.007l-3.617,-1.709l7.562,-16.007l3.617,1.709Z" style="fill:#ed1c24;"/><path d="M476.961,184.391l-7.561,16.007l-3.617,-1.708l7.561,-16.007l3.617,1.708Z" style="fill:#1375bc;"/><path d="M476.593,198.998l-7.562,16.007l-3.616,-1.709l7.562,-16.007l3.616,1.709Z" style="fill:#ed1c24;"/><path d="M476.366,213.993l-7.562,16.007l-3.617,-1.709l7.562,-16.007l3.617,1.709Z" style="fill:#1375bc;"/><path d="M476.143,228.571l-7.562,16.007l-3.616,-1.709l7.562,-16.007l3.616,1.709Z" style="fill:#ed1c24;"/><path d="M475.914,243.565l-7.562,16.007l-3.617,-1.709l7.562,-16.007l3.617,1.709Z" style="fill:#1375bc;"/><path d="M400.743,288.88l-2.097,3.406l-15.463,-9.52l2.097,-3.406l15.463,9.52Z" style="fill:#ed1c24;"/><path d="M415.283,289.142l-2.097,3.406l-15.465,-9.521l2.097,-3.406l15.465,9.521Z" style="fill:#1375bc;"/><path d="M429.42,289.395l-2.097,3.406l-15.465,-9.519l2.097,-3.406l15.465,9.519Z" style="fill:#ed1c24;"/><path d="M443.958,289.655l-2.097,3.407l-15.463,-9.519l2.097,-3.407l15.463,9.519Z" style="fill:#1375bc;"/><g><clipPath id="_clip1"><rect x="374.017" y="172.241" width="91.159" height="122.661"/></clipPath><g clip-path="url(#_clip1)"><g opacity="0.399994"><clipPath id="_clip2"><rect x="374.017" y="172.241" width="91.159" height="122.661"/></clipPath><g clip-path="url(#_clip2)"><path d="M380.966,172.241c0,0 -5.711,123.5 84.21,122.657l-91.159,-3.127l6.949,-119.53" style="fill:#bbbdc0;fill-rule:nonzero;"/></g></g></g></g><g><clipPath id="_clip3"><rect x="371.04" y="171.241" width="146.033" height="122.661"/></clipPath><g clip-path="url(#_clip3)"><g opacity="0.199997"><clipPath id="_clip4"><rect x="371.04" y="171.241" width="146.033" height="122.661"/></clipPath><g clip-path="url(#_clip4)"><path d="M382.173,171.241c0,0 -9.149,123.5 134.9,122.657l-146.033,-3.127l11.133,-119.53" style="fill:#bbbdc0;fill-rule:nonzero;"/></g></g></g></g><path d="M397.679,300.896c0.793,-1.045 125.17,-72.462 150.02,-89.63c0,0 17.494,57.991 15.685,148.515c-1.807,90.523 -52.41,109.5 -60.092,113.115c-7.679,3.613 -71.615,19.428 -119.843,-4.52c-48.231,-23.945 -21.106,-64.609 -4.624,-101.205c16.485,-36.597 4.624,-59.351 4.624,-59.351l14.23,-6.924Z" style="fill:#1375bc;fill-rule:nonzero;"/><path d="M397.721,301.044l-14.109,7.111l0.167,-0.507c1.373,2.817 2.255,5.77 2.951,8.777c0.686,3.007 1.114,6.069 1.351,9.143c0.459,6.157 0.03,12.36 -1.025,18.434c-0.523,3.039 -1.197,6.055 -2.039,9.021c-0.815,2.977 -1.786,5.9 -2.878,8.793c-2.19,5.766 -4.817,11.315 -7.406,16.847c-5.173,11.061 -10.531,22.066 -14.029,33.628c-1.721,5.767 -2.944,11.693 -3.021,17.618c-0.102,5.908 1.028,11.81 3.729,17.004c2.686,5.2 6.779,9.613 11.497,13.207c4.731,3.603 10.049,6.447 15.567,8.874c11.054,4.808 22.879,7.747 34.859,9.384c11.998,1.61 24.185,1.861 36.296,1.094c12.106,-0.8 24.201,-2.503 35.955,-5.423c1.459,-0.384 2.92,-0.775 4.344,-1.228c0.729,-0.223 1.39,-0.455 2.061,-0.701c0.335,-0.142 0.741,-0.301 1.021,-0.431l1.058,-0.474c2.784,-1.221 5.476,-2.543 8.098,-4.034c2.619,-1.487 5.148,-3.131 7.603,-4.882c2.439,-1.773 4.783,-3.679 7.035,-5.69c8.972,-8.105 16.184,-18.107 21.537,-28.998c5.419,-10.88 9.007,-22.639 11.251,-34.604c0.639,-2.981 1.002,-6.01 1.491,-9.017c0.224,-1.508 0.36,-3.026 0.544,-4.539c0.156,-1.515 0.382,-3.026 0.482,-4.546c0.517,-6.056 0.764,-12.188 0.792,-18.276l0.036,-9.159l0.01,-4.579l-0.096,-4.578l-0.192,-9.157c-0.068,-3.051 -0.282,-6.098 -0.416,-9.147c-0.537,-12.197 -1.61,-24.363 -2.878,-36.496c-1.304,-12.133 -3.101,-24.203 -5.147,-36.219c-2.095,-11.991 -4.52,-24 -7.812,-35.638l2.057,0.72c-3.036,2.078 -6.117,4.032 -9.206,5.979c-3.09,1.942 -6.194,3.853 -9.304,5.753c-6.221,3.8 -12.469,7.547 -18.727,11.277c-12.528,7.44 -25.059,14.868 -37.683,22.136l-37.868,21.805l-18.991,10.802l-9.487,5.412c-3.144,1.808 -6.384,3.575 -9.416,5.465l-0.062,0.039ZM397.632,300.753c3.061,-2.05 6.153,-3.852 9.243,-5.761l9.36,-5.636l18.734,-11.243l37.528,-22.372l37.477,-22.445c6.229,-3.766 12.449,-7.547 18.635,-11.376c6.173,-3.838 12.369,-7.684 18.323,-11.764l1.561,-1.07l0.497,1.791c3.3,11.903 5.649,23.906 7.699,35.997l0.76,4.531l0.658,4.546c0.43,3.032 0.879,6.062 1.223,9.105c0.358,3.041 0.767,6.075 1.083,9.12l0.92,9.137c1.073,12.194 1.932,24.408 2.263,36.64c0.431,12.227 0.518,24.462 0.316,36.692c-0.203,12.218 -1.045,24.502 -3.313,36.549c-1.045,6.041 -2.583,11.991 -4.357,17.861c-1.746,5.884 -4.009,11.614 -6.629,17.173c-5.26,11.1 -12.404,21.411 -21.439,29.872c-2.268,2.099 -4.637,4.095 -7.108,5.96c-2.485,1.847 -5.07,3.562 -7.746,5.124c-2.672,1.561 -5.456,2.968 -8.255,4.233l-1.028,0.476c-0.412,0.193 -0.718,0.312 -1.084,0.473c-0.757,0.293 -1.537,0.575 -2.265,0.807c-1.484,0.49 -2.971,0.906 -4.461,1.317c-11.935,3.135 -24.135,4.93 -36.405,5.818c-12.27,0.858 -24.642,0.69 -36.887,-0.87c-12.235,-1.544 -24.358,-4.582 -35.721,-9.576c-5.653,-2.504 -11.186,-5.469 -16.181,-9.292c-4.974,-3.806 -9.402,-8.57 -12.324,-14.268c-2.933,-5.689 -4.176,-12.158 -3.992,-18.448c0.16,-6.315 1.522,-12.461 3.358,-18.367c3.738,-11.826 9.272,-22.825 14.57,-33.82c2.636,-5.512 5.382,-10.958 7.633,-16.581c1.12,-2.803 2.133,-5.666 2.988,-8.567c0.883,-2.897 1.601,-5.841 2.173,-8.812c1.163,-5.939 1.658,-12.014 1.386,-18.062c-0.149,-3.023 -0.484,-6.04 -1.075,-9.011c-0.592,-2.957 -1.4,-5.925 -2.632,-8.642l-0.16,-0.352l0.327,-0.155l14.329,-6.723l0.018,-0.009Z" style="fill:#231f20;fill-rule:nonzero;"/><path d="M32.18,131.944c0,0 169.05,-90.007 355.411,-64.043c0,0 -13.273,185.3 -6.924,228.136c0,0 -16.732,-1.574 -35.771,-4.078c0,0 21.924,82.281 -106.74,64.986c-25.387,-4.023 -3.461,-7.486 -94.622,-9.216c-30.003,2.308 -68.66,-40.006 -83.084,-39.909c-14.424,0.097 -10.385,0 -10.385,0c0,0 -52.505,-145.297 -21.348,-203.572c0,0.001 2.31,7.501 3.463,27.696" style="fill:#1375bc;fill-rule:nonzero;"/><path d="M31.965,132.335l-0.687,-7.326l-0.326,-3.473c-0.119,-1.156 -0.186,-2.319 -0.382,-3.465l-1.007,-6.891c-0.068,-0.577 -0.202,-1.14 -0.314,-1.707l-0.346,-1.699l-0.346,-1.698c-0.123,-0.561 -0.285,-1.097 -0.425,-1.647l1.123,0.109c-3.957,7.663 -6.224,16.103 -7.554,24.619c-1.316,8.536 -1.769,17.198 -1.676,25.847c0.149,17.313 2.269,34.579 5.252,51.65c2.996,17.083 7.005,33.981 11.48,50.742c2.252,8.378 4.657,16.715 7.212,25.006c1.277,4.145 2.592,8.279 3.948,12.397c1.357,4.111 2.752,8.235 4.21,12.276l1.018,2.821l-3.028,0.117l-0.352,0.013l-0.016,0.002l0.019,-0.002c0.033,-0.005 -0.014,0.008 0.192,-0.027c2.354,-0.137 -1.346,-7.498 -0.173,-4.335l-0.069,-0.006c-0.019,-0.002 -0.004,-0.001 -0.001,-0.001l0.16,0.003l0.793,0.002l1.63,-0.008l3.277,-0.027l3.28,-0.034l1.657,-0.013c0.671,0.056 1.397,0.061 2.022,0.194c2.556,0.48 4.717,1.427 6.768,2.451c2.054,1.026 4.005,2.153 5.899,3.329c1.908,1.165 3.751,2.386 5.59,3.61l5.454,3.714c3.612,2.488 7.196,4.981 10.811,7.404c3.614,2.422 7.257,4.779 10.963,6.991c1.855,1.105 3.715,2.195 5.605,3.21c0.939,0.525 1.887,1.026 2.844,1.502c0.951,0.496 1.907,0.973 2.876,1.415c0.963,0.462 1.929,0.912 2.91,1.314c0.975,0.425 1.952,0.836 2.945,1.193c0.985,0.386 1.976,0.748 2.978,1.055l1.498,0.487l1.512,0.403c0.505,0.129 1.006,0.28 1.512,0.392l1.522,0.306c1.013,0.238 2.032,0.34 3.048,0.477c1.017,0.176 2.03,0.14 3.045,0.223c1.013,0.039 2.014,-0.05 3.022,-0.061l0.243,-0.007l15.422,0.364c5.141,0.135 10.278,0.215 15.422,0.393l15.44,0.647c1.287,0.062 2.572,0.103 3.861,0.184l3.871,0.294l7.743,0.588c0.646,0.054 1.289,0.088 1.937,0.159l1.95,0.257l3.902,0.517c2.593,0.246 5.214,0.914 7.826,1.495c0.664,0.131 1.288,0.322 1.91,0.519l1.876,0.574c1.281,0.405 2.444,0.724 3.611,1.053l1.759,0.499l0.878,0.251l0.942,0.188l3.78,0.742l1.889,0.371l0.945,0.185l0.792,0.093l3.793,0.442c2.53,0.282 5.056,0.62 7.588,0.857c5.071,0.357 10.14,0.853 15.213,0.906l3.805,0.114c1.269,0.054 2.531,-0.03 3.798,-0.038l3.797,-0.077c1.267,-0.018 2.533,-0.04 3.789,-0.163c2.514,-0.215 5.045,-0.332 7.547,-0.624c2.488,-0.367 5,-0.636 7.471,-1.08l3.686,-0.761c1.227,-0.259 2.469,-0.472 3.658,-0.852c2.394,-0.711 4.846,-1.27 7.146,-2.22c1.163,-0.44 2.342,-0.847 3.494,-1.312l3.363,-1.58c0.554,-0.274 1.138,-0.498 1.667,-0.814l1.598,-0.934l1.598,-0.932l0.8,-0.465c0.26,-0.164 0.502,-0.354 0.754,-0.53l2.998,-2.143c0.949,-0.775 1.853,-1.602 2.783,-2.398l0.695,-0.602c0.217,-0.214 0.42,-0.442 0.632,-0.662l1.261,-1.331c0.409,-0.453 0.865,-0.867 1.239,-1.349l1.126,-1.444c3,-3.849 5.316,-8.222 6.88,-12.873c1.567,-4.651 2.416,-9.561 2.635,-14.51c0.078,-2.478 0.048,-4.962 -0.154,-7.437c-0.213,-2.445 -0.558,-4.993 -1.098,-7.252l-0.704,-2.943l2.97,0.363l17.835,2.179c2.973,0.35 5.943,0.754 8.921,1.056l8.929,0.936l-2.126,2.243c-0.439,-4.809 -1.076,-9.637 -1.157,-14.41l-0.303,-7.177c-0.072,-2.39 -0.063,-4.775 -0.099,-7.162l-0.075,-7.161c-0.032,-2.387 0.031,-4.768 0.042,-7.153c0.067,-4.766 0.046,-9.537 0.186,-14.299l0.342,-14.29l0.483,-14.28c0.148,-4.761 0.359,-9.518 0.56,-14.276c0.211,-4.757 0.38,-9.516 0.625,-14.271c0.454,-9.511 0.922,-19.022 1.45,-28.529l0.799,-14.259l0.84,-14.257c1.148,-19.008 2.402,-38.004 3.776,-57.001l1.204,1.488l-11.325,-1.394l-5.663,-0.697l-5.684,-0.508l-11.371,-0.987l-11.398,-0.616l-5.699,-0.299c-1.902,-0.073 -3.805,-0.084 -5.708,-0.129l-11.415,-0.228l-11.418,0.116l-5.709,0.067l-5.706,0.234c-3.802,0.166 -7.608,0.29 -11.41,0.49l-11.395,0.794c-3.803,0.221 -7.589,0.632 -11.38,0.995l-5.686,0.552l-2.842,0.276l-2.835,0.349l-11.341,1.4c-3.777,0.488 -7.538,1.1 -11.308,1.644l-5.651,0.846l-5.631,0.973c-3.749,0.671 -7.517,1.245 -11.253,1.997l-11.216,2.199c-3.731,0.772 -7.448,1.614 -11.172,2.418c-3.731,0.779 -7.427,1.706 -11.134,2.588l-5.56,1.333l-5.534,1.428c-7.389,1.874 -14.726,3.942 -22.053,6.044l-10.953,3.285l-10.897,3.466l-10.842,3.637l-10.785,3.808c-7.157,2.626 -14.298,5.301 -21.371,8.15c-7.09,2.806 -14.108,5.793 -21.085,8.867c-6.966,3.096 -13.894,6.298 -20.671,9.779l-0.331,0.17ZM32.404,131.553c6.665,-3.468 13.457,-6.667 20.297,-9.76c6.966,-3.124 13.972,-6.161 21.051,-9.017c7.063,-2.898 14.195,-5.623 21.345,-8.3l10.773,-3.884l10.834,-3.713l10.892,-3.543l10.949,-3.363c7.326,-2.154 14.663,-4.274 22.053,-6.2l5.537,-1.467l5.561,-1.372c3.709,-0.908 7.408,-1.862 11.142,-2.667c3.727,-0.83 7.447,-1.699 11.182,-2.497l11.23,-2.278c3.739,-0.779 7.513,-1.379 11.269,-2.077l5.639,-1.013l5.661,-0.885c3.778,-0.571 7.546,-1.209 11.332,-1.724l11.366,-1.478l2.842,-0.369l2.851,-0.296l5.701,-0.591c3.801,-0.389 7.598,-0.827 11.413,-1.073l11.433,-0.872c3.815,-0.226 7.634,-0.376 11.453,-0.568l5.727,-0.273l5.734,-0.104l11.467,-0.192l11.47,0.161c1.912,0.036 3.824,0.038 5.735,0.101l5.73,0.272l11.46,0.563l11.436,0.937l5.718,0.482l5.698,0.673l11.399,1.347l1.294,0.153l-0.09,1.335c-1.279,18.98 -2.439,37.98 -3.493,56.979l-0.77,14.251l-0.727,14.253c-0.482,9.502 -0.902,19.006 -1.308,28.511c-0.223,4.751 -0.367,9.505 -0.555,14.257c-0.177,4.753 -0.365,9.505 -0.489,14.258l-0.412,14.259l-0.27,14.257c-0.117,4.753 -0.072,9.501 -0.116,14.251c0,2.374 -0.05,4.752 -0.008,7.123l0.111,7.116c0.047,2.37 0.05,4.746 0.134,7.111l0.334,7.085c0.104,4.753 0.75,9.371 1.19,14.037l0.233,2.479l-2.359,-0.236l-8.978,-0.897c-2.996,-0.289 -5.974,-0.68 -8.962,-1.012l-17.917,-2.075l2.265,-2.581c0.672,2.734 1.013,5.291 1.27,7.958c0.233,2.644 0.283,5.3 0.215,7.956c-0.202,5.308 -1.078,10.624 -2.758,15.717c-1.675,5.09 -4.196,9.936 -7.482,14.204l-1.235,1.598c-0.411,0.535 -0.904,0.996 -1.353,1.497l-1.379,1.474c-0.233,0.243 -0.457,0.495 -0.696,0.732l-0.754,0.667c-1.012,0.881 -2.002,1.793 -3.037,2.646l-3.252,2.358c-0.273,0.194 -0.538,0.401 -0.819,0.58l-0.86,0.511l-1.722,1.021l-1.724,1.017c-0.573,0.344 -1.191,0.59 -1.785,0.889l-3.598,1.716c-1.225,0.505 -2.472,0.947 -3.707,1.422c-2.454,1.022 -5.019,1.633 -7.543,2.395c-1.259,0.406 -2.551,0.639 -3.834,0.919l-3.855,0.819c-2.577,0.48 -5.177,0.778 -7.766,1.173c-2.595,0.32 -5.2,0.458 -7.801,0.695c-1.301,0.134 -2.602,0.166 -3.903,0.193l-3.904,0.104c-1.301,0.016 -2.605,0.109 -3.903,0.063l-3.896,-0.093c-5.204,-0.019 -10.368,-0.495 -15.544,-0.847c-2.581,-0.232 -5.148,-0.565 -7.723,-0.842l-3.86,-0.437l-0.483,-0.054l-0.241,-0.028l-0.12,-0.013l-0.275,-0.048l-0.946,-0.182l-1.891,-0.364l-3.782,-0.728l-0.947,-0.186l-0.976,-0.268l-1.951,-0.538c-1.307,-0.359 -2.62,-0.723 -3.789,-1.088l-1.809,-0.547c-0.603,-0.188 -1.206,-0.372 -1.806,-0.482c-2.405,-0.516 -4.767,-1.13 -7.299,-1.359l-3.738,-0.48l-1.868,-0.242c-0.629,-0.066 -1.269,-0.097 -1.902,-0.148l-7.623,-0.55l-3.81,-0.276c-1.274,-0.075 -2.557,-0.111 -3.835,-0.169l-15.346,-0.672c-5.119,-0.191 -10.253,-0.284 -15.379,-0.431l-15.382,-0.404l0.243,-0.006c-1.18,0.022 -2.368,0.112 -3.541,0.066c-1.166,-0.089 -2.355,-0.069 -3.5,-0.264c-1.152,-0.156 -2.313,-0.283 -3.435,-0.546l-1.696,-0.347c-0.562,-0.126 -1.11,-0.29 -1.665,-0.435l-1.659,-0.448l-1.623,-0.531c-1.091,-0.338 -2.155,-0.73 -3.208,-1.144c-1.066,-0.389 -2.105,-0.828 -3.137,-1.281c-1.043,-0.432 -2.06,-0.907 -3.07,-1.395c-1.022,-0.47 -2.022,-0.973 -3.012,-1.491c-1.001,-0.503 -1.987,-1.027 -2.959,-1.572c-1.962,-1.063 -3.881,-2.187 -5.774,-3.344c-3.79,-2.31 -7.48,-4.745 -11.116,-7.23c-3.637,-2.486 -7.218,-5.025 -10.794,-7.535l-5.368,-3.727c-1.795,-1.218 -3.591,-2.433 -5.41,-3.565c-1.814,-1.15 -3.65,-2.228 -5.503,-3.175c-1.842,-0.956 -3.754,-1.756 -5.506,-2.094c-0.444,-0.105 -0.825,-0.076 -1.24,-0.141l-1.626,-0.002l-3.287,0.004l-3.289,-0.002l-1.654,-0.006l-0.848,-0.01l-0.251,-0.007l-0.104,-0.005l-0.119,-0.01c1.159,3.164 -2.576,-4.207 -0.191,-4.347c0.223,-0.038 0.193,-0.026 0.243,-0.033l0.07,-0.005l0.087,-0.005l0.468,-0.014l-2.01,2.937c-1.457,-4.156 -2.813,-8.287 -4.145,-12.45c-1.328,-4.157 -2.613,-8.327 -3.86,-12.508c-2.494,-8.362 -4.837,-16.766 -7.026,-25.212c-4.378,-16.892 -8.042,-33.976 -10.822,-51.215c-2.734,-17.237 -4.601,-34.671 -4.478,-52.178c0.071,-8.746 0.74,-17.509 2.261,-26.144c1.539,-8.613 4.032,-17.158 8.246,-24.897l0.767,-1.409l0.356,1.517c0.137,0.581 0.298,1.165 0.413,1.744l0.314,1.732l0.313,1.732c0.1,0.578 0.224,1.152 0.279,1.734l0.829,6.96c0.165,1.157 0.201,2.325 0.288,3.488l0.231,3.492l0.437,6.602Z" style="fill:#231f20;fill-rule:nonzero;"/><path d="M174.699,253.121c0,0 0.016,0.181 0.098,0.515c0.091,0.331 0.253,0.818 0.575,1.393c0.623,1.161 1.98,2.605 4.127,3.729c0.267,0.14 0.533,0.3 0.818,0.437c0.3,0.113 0.608,0.231 0.922,0.35c0.63,0.23 1.263,0.519 1.993,0.661c0.717,0.168 1.448,0.375 2.22,0.543c0.786,0.116 1.601,0.237 2.442,0.363c0.83,0.161 1.724,0.158 2.626,0.224c0.908,0.034 1.828,0.15 2.792,0.12c1.927,-0.071 3.932,0.045 6.045,-0.182c1.052,-0.079 2.127,-0.159 3.222,-0.24c1.093,-0.076 2.207,-0.272 3.339,-0.406c1.131,-0.141 2.282,-0.284 3.45,-0.431c1.166,-0.171 2.348,-0.393 3.546,-0.593c1.197,-0.204 2.41,-0.412 3.639,-0.622c1.245,-0.225 2.504,-0.454 3.778,-0.685c2.549,-0.459 5.217,-0.847 7.886,-1.2c5.36,-0.697 10.917,-1.321 16.586,-1.65c5.667,-0.351 11.436,-0.52 17.211,-0.491c5.774,0.081 11.549,0.366 17.222,0.871c5.677,0.472 11.234,1.339 16.572,2.396c5.341,1.048 10.439,2.45 15.166,4.115c1.175,0.441 2.343,0.845 3.474,1.301c1.121,0.481 2.226,0.956 3.312,1.421c1.058,0.532 2.098,1.053 3.12,1.566c1.025,0.499 1.97,1.124 2.925,1.662c3.772,2.268 6.953,4.815 9.414,7.421c0.607,0.656 1.145,1.342 1.688,1.974c0.264,0.324 0.542,0.624 0.777,0.95c0.223,0.336 0.441,0.666 0.655,0.989c0.421,0.648 0.846,1.253 1.208,1.857c0.32,0.63 0.626,1.23 0.915,1.799c0.633,1.107 0.942,2.215 1.284,3.135c0.153,0.467 0.336,0.883 0.43,1.289c0.089,0.406 0.171,0.775 0.245,1.106c0.29,1.312 0.445,2.012 0.445,2.012c0,0 -0.245,-0.672 -0.705,-1.932c-0.114,-0.313 -0.241,-0.663 -0.382,-1.047c-0.142,-0.382 -0.378,-0.77 -0.587,-1.202c-0.461,-0.849 -0.872,-1.873 -1.599,-2.877c-0.336,-0.514 -0.69,-1.055 -1.061,-1.621c-0.409,-0.541 -0.882,-1.074 -1.347,-1.644c-0.235,-0.282 -0.474,-0.571 -0.718,-0.865c-0.252,-0.287 -0.545,-0.55 -0.823,-0.833c-0.571,-0.554 -1.132,-1.153 -1.76,-1.719c-2.555,-2.243 -5.766,-4.363 -9.475,-6.283c-3.719,-1.906 -7.975,-3.544 -12.593,-4.91c-4.62,-1.367 -9.606,-2.435 -14.805,-3.334c-2.601,-0.449 -5.266,-0.795 -7.965,-1.129c-2.708,-0.281 -5.448,-0.563 -8.22,-0.786c-5.543,-0.439 -11.199,-0.653 -16.858,-0.685c-5.66,-0.087 -11.328,0.021 -16.898,0.311c-5.569,0.301 -11.054,0.638 -16.339,1.193c-2.656,0.259 -5.21,0.593 -7.763,0.893c-1.276,0.166 -2.538,0.329 -3.784,0.49c-1.266,0.151 -2.517,0.3 -3.752,0.447c-1.234,0.141 -2.446,0.306 -3.649,0.42c-1.208,0.08 -2.397,0.16 -3.566,0.238c-1.172,0.055 -2.313,0.173 -3.45,0.173c-1.133,0.004 -2.246,0.009 -3.336,0.013c-1.087,0.013 -2.152,0.014 -3.199,-0.076c-1.043,-0.068 -2.062,-0.135 -3.055,-0.2c-0.992,-0.059 -1.958,-0.265 -2.893,-0.385c-0.935,-0.154 -1.845,-0.235 -2.713,-0.482c-3.503,-0.678 -6.445,-1.965 -8.588,-3.388c-2.17,-1.429 -3.367,-3.193 -3.855,-4.457c-0.254,-0.636 -0.351,-1.15 -0.399,-1.496c-0.038,-0.348 -0.03,-0.526 -0.03,-0.526" style="fill:#231f20;fill-rule:nonzero;"/><path d="M39.689,277.353c0,0 -0.333,-2.284 -0.825,-6.286c-0.492,-4.001 -1.164,-9.719 -1.845,-16.585c-0.349,-3.433 -0.729,-7.151 -1.065,-11.087c-0.346,-3.936 -0.709,-8.086 -1.086,-12.379c-0.703,-8.589 -1.375,-17.754 -1.993,-26.92c-0.29,-4.585 -0.58,-9.169 -0.866,-13.681c-0.261,-4.514 -0.519,-8.956 -0.769,-13.254c-0.447,-8.6 -0.863,-16.626 -1.22,-23.505c-0.188,-3.439 -0.36,-6.591 -0.512,-9.385c-0.184,-2.79 -0.333,-5.224 -0.495,-7.226c-0.096,-0.999 -0.182,-1.891 -0.257,-2.667c-0.103,-0.771 -0.192,-1.428 -0.263,-1.96c-0.202,-1.046 -0.342,-1.614 -0.342,-1.614c0,0 0.056,0.132 0.163,0.389c0.099,0.259 0.29,0.638 0.458,1.155c0.157,0.521 0.35,1.163 0.577,1.918c0.188,0.764 0.404,1.643 0.647,2.627c0.21,0.989 0.443,2.085 0.696,3.278c0.239,1.195 0.462,2.492 0.716,3.878c0.233,1.387 0.482,2.863 0.743,4.419c0.231,1.559 0.473,3.199 0.726,4.91c0.488,3.423 0.991,7.135 1.435,11.068c0.458,3.932 0.939,8.079 1.35,12.375c0.419,4.295 0.829,8.735 1.186,13.25c0.377,4.513 0.696,9.103 1.015,13.692c0.292,4.591 0.581,9.182 0.81,13.704c0.244,4.521 0.443,8.973 0.609,13.282c0.181,4.309 0.277,8.478 0.384,12.43c0.124,3.951 0.168,7.691 0.206,11.143c0.094,6.902 0.044,12.661 -0.02,16.692c-0.064,4.032 -0.163,6.339 -0.163,6.339" style="fill:#231f20;fill-rule:nonzero;"/><path d="M393.65,306.681c0,8.234 -6.372,14.91 -14.232,14.91c-7.86,0 -14.232,-6.676 -14.232,-14.91c0,-8.234 6.372,-14.91 14.232,-14.91c7.86,0 14.232,6.676 14.232,14.91" style="fill:#262261;fill-rule:nonzero;"/><path d="M393.45,306.681c0,0 -0.023,-0.353 -0.066,-1.013c-0.004,-0.332 -0.078,-0.733 -0.173,-1.203c-0.043,-0.235 -0.093,-0.487 -0.156,-0.753c-0.084,-0.26 -0.172,-0.537 -0.266,-0.829c-0.396,-1.154 -1.068,-2.507 -2.156,-3.765c-1.066,-1.272 -2.505,-2.444 -4.164,-3.373c-0.849,-0.437 -1.735,-0.842 -2.68,-1.147c-0.925,-0.34 -1.985,-0.521 -2.878,-0.623c-0.212,-0.046 -0.591,-0.03 -0.881,-0.048l-0.468,-0.015l-0.235,-0.007c0.041,0.001 -0.134,-0.005 0.085,0.003l-0.025,0.002l-0.05,0.003l-0.1,0.009c-0.53,0.044 -1.072,0.037 -1.604,0.155c-1.08,0.137 -2.146,0.48 -3.199,0.913c-2.092,0.902 -4.029,2.468 -5.446,4.514l-0.517,0.782c-0.163,0.269 -0.293,0.555 -0.453,0.83c-0.168,0.271 -0.299,0.559 -0.423,0.854c-0.122,0.294 -0.281,0.579 -0.376,0.887c-0.222,0.608 -0.449,1.223 -0.581,1.827c-0.191,0.545 -0.244,1.414 -0.357,1.997c-0.101,1.33 -0.073,2.697 0.213,4.029c0.32,1.315 0.784,2.614 1.509,3.758c0.716,1.142 1.578,2.196 2.628,2.996c1.047,0.793 2.173,1.45 3.368,1.824c1.165,0.385 2.413,0.629 3.49,0.644c0.487,0.06 1.178,0.009 1.803,-0.004l0.118,-0.002l0.06,0l0.029,-0.001c-0.166,-0.004 -0.031,-0.003 -0.062,-0.005l0.206,-0.027l0.41,-0.052c0.269,-0.041 0.542,-0.035 0.803,-0.101c2.109,-0.377 4.003,-1.095 5.663,-2.053c1.657,-0.955 3.078,-2.148 4.146,-3.422c1.087,-1.266 1.761,-2.621 2.151,-3.778c0.093,-0.294 0.181,-0.572 0.263,-0.832c0.061,-0.265 0.109,-0.515 0.15,-0.749c0.092,-0.465 0.164,-0.869 0.163,-1.208c0.038,-0.669 0.058,-1.027 0.058,-1.027l0,0.01ZM393.85,306.691c0,0 -0.014,0.357 -0.042,1.027c-0.004,0.333 -0.031,0.75 -0.096,1.245c-0.026,0.248 -0.052,0.516 -0.08,0.8c-0.05,0.28 -0.104,0.578 -0.161,0.893c-0.081,0.639 -0.29,1.32 -0.46,2.09c-0.245,0.745 -0.5,1.566 -0.883,2.414c-0.751,1.691 -1.922,3.554 -3.745,5.124c-1.815,1.553 -4.333,2.687 -7.105,2.943c-0.343,0.049 -0.695,0.026 -1.045,0.038l-0.526,-0.003l-0.265,-0.003l-0.12,-0.003l-0.029,-0.004l-0.059,-0.007l-0.118,-0.013c-0.633,-0.089 -1.225,-0.146 -2.005,-0.347c-1.484,-0.329 -2.766,-0.933 -4.027,-1.675c-2.491,-1.506 -4.53,-3.648 -6.117,-6.099c-1.551,-2.485 -2.566,-5.366 -2.875,-8.43c-0.013,-0.843 -0.113,-1.413 -0.033,-2.276c0.022,-0.821 0.145,-1.59 0.276,-2.363c0.341,-1.525 0.85,-3.04 1.647,-4.402c1.554,-2.738 3.905,-5.018 6.666,-6.404c1.373,-0.695 2.838,-1.2 4.32,-1.407c0.735,-0.143 1.475,-0.154 2.203,-0.187l0.136,-0.004l0.069,-0.002l0.178,0.003l0.234,0.018l0.468,0.034c0.329,0.034 0.575,0.022 0.968,0.093c0.742,0.125 1.507,0.247 2.139,0.466c0.328,0.103 0.656,0.195 0.974,0.306c0.309,0.134 0.616,0.267 0.921,0.398c0.618,0.238 1.154,0.62 1.703,0.929c0.526,0.352 1.008,0.748 1.472,1.125c1.821,1.596 2.975,3.481 3.727,5.174c0.383,0.851 0.638,1.675 0.882,2.421c0.17,0.773 0.378,1.455 0.457,2.097c0.055,0.315 0.107,0.614 0.156,0.894c0.026,0.283 0.052,0.549 0.075,0.796c0.062,0.491 0.087,0.909 0.088,1.25c0.021,0.679 0.032,1.041 0.032,1.041l0,0.01Z" style="fill:#231f20;fill-rule:nonzero;"/><g><clipPath id="_clip5"><rect x="173.699" y="243.09" width="161.936" height="36.431"/></clipPath><g clip-path="url(#_clip5)"><g opacity="0.300003"><clipPath id="_clip6"><rect x="173.699" y="243.09" width="161.936" height="36.431"/></clipPath><g clip-path="url(#_clip6)"><path d="M173.699,252.121c0,0 115.891,-15.414 134.698,-5.966c0,0 30.278,10.344 26.988,33.366c0,0 -15.886,-26.4 -76.701,-22.159c-37.56,2.619 -78.075,12.159 -84.985,-5.241" style="fill:#262261;fill-rule:nonzero;"/></g></g></g></g><g><g opacity="0.199997"><clipPath id="_clip7"><rect x="39.689" y="69.26" width="331.351" height="66.528"/></clipPath><g clip-path="url(#_clip7)"><path d="M39.689,135.788c0,0 159.052,-84.002 331.351,-63.223" style="fill:#f1f2f2;fill-rule:nonzero;"/></g></g></g><g><clipPath id="_clip8"><rect x="48.301" y="90.746" width="157.706" height="45.041"/></clipPath><g clip-path="url(#_clip8)"><g opacity="0.300003"><path d="M48.534,135.72c-5.207,2.086 78.139,-44.919 143.804,-44.974c65.665,-0.055 -125.593,37.678 -143.804,44.974" style="fill:#939598;fill-rule:nonzero;"/></g></g></g><g><clipPath id="_clip9"><rect x="355.652" y="306.558" width="60.069" height="167.64"/></clipPath><g clip-path="url(#_clip9)"><g opacity="0.100006"><clipPath id="_clip10"><rect x="355.651" y="306.558" width="60.07" height="167.64"/></clipPath><g clip-path="url(#_clip10)"><path d="M387.127,306.681c-0.021,2.557 8.491,24.29 -4.674,54.828c-13.854,32.139 -24.286,28.072 -26.727,69.177c-2.319,39.039 50.323,43.512 58.866,43.512c8.543,0 -34.579,-50.038 -23.189,-100.078c11.391,-50.039 -4.26,-69.31 -4.276,-67.439" style="fill:#262261;fill-rule:nonzero;"/></g></g></g></g><g><clipPath id="_clip11"><rect x="355.72" y="319.882" width="130.398" height="161.17"/></clipPath><g clip-path="url(#_clip11)"><g opacity="0.199997"><clipPath id="_clip12"><rect x="355.72" y="319.882" width="130.398" height="161.17"/></clipPath><g clip-path="url(#_clip12)"><path d="M385.686,320.069c-0.041,2.557 9.956,12.522 -3.233,41.44c-16.32,35.784 -22.007,33.808 -26.612,74.913c-4.372,39.039 111.294,48.192 128.667,43.511c15.211,-4.097 -82.861,-50.038 -61.378,-100.077c21.486,-50.039 -37.416,-61.658 -37.445,-59.787" style="fill:#262261;fill-rule:nonzero;"/></g></g></g></g><g><clipPath id="_clip13"><rect x="48.301" y="287.895" width="280.906" height="68.996"/></clipPath><g clip-path="url(#_clip13)"><g opacity="0.199997"><clipPath id="_clip14"><rect x="48.301" y="287.895" width="280.906" height="68.996"/></clipPath><g clip-path="url(#_clip14)"><path d="M48.301,290.82l3.7,14.235c0,0 -1.009,-8.41 59.881,29.604c0,0 10.428,8.074 24.557,9.756c14.129,1.681 38.686,0.488 43.06,1.59c4.373,1.101 30.277,1.1 37.341,2.783c7.065,1.682 19.511,7.401 53.152,8.074c33.641,0.673 52.48,-10.43 58.535,-16.484c6.055,-6.055 -29.267,9.084 -68.29,-0.336c-39.024,-9.42 -88.139,-10.093 -92.176,-10.093c-4.037,0 -42.05,5.607 -79.728,-23.268c-37.678,-28.875 -40.032,-15.861 -40.032,-15.861" style="fill:#262261;fill-rule:nonzero;"/></g></g></g></g><g><clipPath id="_clip15"><rect x="46.283" y="279.522" width="281.103" height="76.223"/></clipPath><g clip-path="url(#_clip15)"><g opacity="0.100006"><clipPath id="_clip16"><rect x="46.283" y="279.521" width="281.103" height="76.224"/></clipPath><g clip-path="url(#_clip16)"><path d="M46.283,290.315l3.7,14.097c0,0 -1.009,-8.328 59.881,29.316c0,0 10.428,7.996 24.557,9.661c14.129,1.665 38.686,0.484 43.06,1.574c4.373,1.091 30.277,1.091 37.341,2.756c7.065,1.667 19.511,7.33 53.152,7.996c33.641,0.667 52.48,-10.328 58.535,-16.324c6.055,-5.995 -19.847,-6.38 -58.871,-15.709c-39.023,-9.327 -94.866,-11.881 -98.903,-11.881c-4.037,0 -41.042,9.745 -78.72,-18.849c-37.677,-28.595 -43.732,-2.637 -43.732,-2.637" style="fill:#262261;fill-rule:nonzero;"/></g></g></g></g><g><clipPath id="_clip17"><rect x="393.65" y="320.893" width="24.17" height="3"/></clipPath><g clip-path="url(#_clip17)"><g opacity="0.5"><clipPath id="_clip18"><rect x="393.65" y="320.893" width="24.17" height="3"/></clipPath><g clip-path="url(#_clip18)"><path d="M393.65,322.393c0,0 0.378,-0.13 1.038,-0.297c0.661,-0.171 1.606,-0.376 2.738,-0.568c2.266,-0.383 5.287,-0.633 8.309,-0.635c3.021,-0.001 6.043,0.246 8.309,0.631c1.132,0.192 2.077,0.399 2.738,0.57c0.66,0.168 1.038,0.299 1.038,0.299c0,0 -0.378,0.131 -1.038,0.299c-0.661,0.171 -1.606,0.378 -2.738,0.57c-2.266,0.385 -5.288,0.632 -8.309,0.631c-3.022,-0.002 -6.043,-0.252 -8.309,-0.635c-1.132,-0.192 -2.077,-0.397 -2.738,-0.568c-0.66,-0.167 -1.038,-0.297 -1.038,-0.297" style="fill:#231f20;fill-rule:nonzero;"/></g></g></g></g><g><clipPath id="_clip19"><rect x="393.65" y="330.341" width="24.17" height="11.387"/></clipPath><g clip-path="url(#_clip19)"><g opacity="0.5"><clipPath id="_clip20"><rect x="393.65" y="330.341" width="24.17" height="11.387"/></clipPath><g clip-path="url(#_clip20)"><path d="M393.65,330.341c0,0 0.433,0.061 1.165,0.221c0.732,0.16 1.769,0.409 2.977,0.783c2.436,0.707 5.558,1.914 8.582,3.333c3.02,1.425 5.941,3.061 8.037,4.491c1.057,0.693 1.908,1.336 2.498,1.8c0.589,0.462 0.911,0.759 0.911,0.759c0,0 -0.434,-0.06 -1.166,-0.22c-0.733,-0.159 -1.77,-0.406 -2.978,-0.78c-2.436,-0.705 -5.558,-1.915 -8.58,-3.337c-3.019,-1.428 -5.939,-3.068 -8.035,-4.495c-1.057,-0.694 -1.909,-1.334 -2.499,-1.797c-0.59,-0.462 -0.912,-0.758 -0.912,-0.758" style="fill:#231f20;fill-rule:nonzero;"/></g></g></g></g><g><clipPath id="_clip21"><rect x="393.65" y="343.117" width="12.085" height="26.662"/></clipPath><g clip-path="url(#_clip21)"><g opacity="0.5"><clipPath id="_clip22"><rect x="393.65" y="343.117" width="12.085" height="26.662"/></clipPath><g clip-path="url(#_clip22)"><path d="M393.65,343.117c0,0 0.308,0.363 0.79,1.023c0.482,0.661 1.152,1.612 1.879,2.79c1.496,2.334 3.225,5.568 4.739,8.899c1.509,3.334 2.805,6.764 3.573,9.429c0.406,1.322 0.679,2.454 0.857,3.253c0.178,0.797 0.247,1.268 0.247,1.268c0,0 -0.309,-0.362 -0.791,-1.022c-0.483,-0.66 -1.154,-1.612 -1.882,-2.788c-1.498,-2.334 -3.224,-5.57 -4.735,-8.902c-1.506,-3.335 -2.799,-6.766 -3.57,-9.43c-0.406,-1.323 -0.68,-2.454 -0.858,-3.251c-0.179,-0.798 -0.249,-1.269 -0.249,-1.269" style="fill:#231f20;fill-rule:nonzero;"/></g></g></g></g><g><clipPath id="_clip23"><rect x="184.775" y="224.353" width="16.634" height="26.44"/></clipPath><g clip-path="url(#_clip23)"><g opacity="0.699997"><clipPath id="_clip24"><rect x="184.775" y="224.353" width="16.634" height="26.441"/></clipPath><g clip-path="url(#_clip24)"><path d="M184.775,250.635c0,0 0.872,-1.737 2.233,-4.31c0.676,-1.29 1.461,-2.795 2.329,-4.393c0.853,-1.607 1.801,-3.296 2.737,-4.994c0.453,-0.857 0.907,-1.715 1.353,-2.559c0.433,-0.853 0.877,-1.681 1.346,-2.458c0.483,-0.768 0.969,-1.498 1.479,-2.161c0.492,-0.672 0.981,-1.295 1.452,-1.856c1.855,-2.265 3.451,-3.551 3.45,-3.551l0.255,0.158c0,0 -0.452,1.999 -1.668,4.662c-0.296,0.671 -0.64,1.383 -1.027,2.122c-0.37,0.749 -0.812,1.507 -1.289,2.279c-0.49,0.763 -1.038,1.527 -1.613,2.291c-0.561,0.773 -1.131,1.558 -1.702,2.343c-1.111,1.587 -2.21,3.183 -3.277,4.656c-1.052,1.483 -2.058,2.852 -2.918,4.026c-1.709,2.355 -2.885,3.903 -2.885,3.903l-0.255,-0.158Z" style="fill:#231f20;fill-rule:nonzero;"/></g></g></g></g><g><clipPath id="_clip25"><rect x="179.613" y="207.847" width="8.512" height="42.896"/></clipPath><g clip-path="url(#_clip25)"><g opacity="0.699997"><clipPath id="_clip26"><rect x="179.613" y="207.847" width="8.512" height="42.896"/></clipPath><g clip-path="url(#_clip26)"><path d="M179.613,250.686c0,0 0.336,-2.711 0.902,-6.766c0.53,-4.061 1.368,-9.452 2.161,-14.851c0.189,-1.351 0.377,-2.703 0.562,-4.033c0.171,-1.334 0.359,-2.642 0.586,-3.9c0.243,-1.254 0.5,-2.463 0.801,-3.597c0.282,-1.139 0.573,-2.211 0.866,-3.196c1.138,-3.945 2.312,-6.496 2.311,-6.496l0.295,0.056c0,0 0.15,2.804 -0.248,6.891c-0.09,1.023 -0.215,2.127 -0.373,3.289c-0.139,1.166 -0.346,2.384 -0.583,3.64c-0.252,1.253 -0.56,2.538 -0.894,3.84c-0.318,1.305 -0.642,2.631 -0.965,3.957c-1.254,5.311 -2.463,10.63 -3.469,14.601c-0.97,3.978 -1.657,6.622 -1.657,6.622l-0.295,-0.057Z" style="fill:#231f20;fill-rule:nonzero;"/></g></g></g></g><g><clipPath id="_clip27"><rect x="172.436" y="207.871" width="3.146" height="32.72"/></clipPath><g clip-path="url(#_clip27)"><g opacity="0.699997"><clipPath id="_clip28"><rect x="172.436" y="207.871" width="3.146" height="32.72"/></clipPath><g clip-path="url(#_clip28)"><path d="M174.549,240.591c0,0 -0.242,-2.039 -0.541,-5.099c-0.154,-1.53 -0.339,-3.316 -0.506,-5.229c-0.185,-1.913 -0.336,-3.954 -0.502,-5.996c-0.1,-1.02 -0.201,-2.04 -0.299,-3.044c-0.114,-1.004 -0.205,-1.992 -0.248,-2.95c-0.026,-0.959 -0.028,-1.886 0.028,-2.767c0.035,-0.88 0.095,-1.713 0.175,-2.483c0.282,-3.078 0.893,-5.144 0.893,-5.144l0.3,-0.009c0,0 0.736,2.024 1.205,5.079c0.127,0.764 0.238,1.592 0.327,2.468c0.109,0.876 0.164,1.802 0.196,2.76c0.016,0.959 -0.014,1.951 -0.067,2.96c-0.037,1.008 -0.074,2.033 -0.112,3.057c-0.041,2.048 -0.067,4.095 -0.135,6.015c-0.049,1.921 -0.125,3.714 -0.186,5.25c-0.111,3.073 -0.228,5.123 -0.228,5.123l-0.3,0.009Z" style="fill:#231f20;fill-rule:nonzero;"/></g></g></g></g><path d="M37.533,140.964l0.269,-0.05l-1.109,-5.126l0.84,5.176Z" style="fill:#231f20;fill-rule:nonzero;"/><path d="M38.752,148.675l0.597,-0.105l-1.027,-5.144l-0.383,0.07l0.813,5.179Z" style="fill:#231f20;fill-rule:nonzero;"/><path d="M39.939,156.39l0.869,-0.146l-0.966,-5.156l-0.692,0.12l0.789,5.182Z" style="fill:#231f20;fill-rule:nonzero;"/><path d="M41.092,164.11l1.097,-0.178l-0.912,-5.164l-0.949,0.157l0.764,5.184Z" style="fill:#231f20;fill-rule:nonzero;"/><path d="M42.213,171.833l1.286,-0.199l-0.868,-5.173l-1.162,0.185l0.744,5.187Z" style="fill:#231f20;fill-rule:nonzero;"/><path d="M43.307,179.56l1.439,-0.213l-0.832,-5.179l-1.339,0.205l0.732,5.187Z" style="fill:#231f20;fill-rule:nonzero;"/><path d="M44.356,187.29l1.562,-0.22l-0.785,-5.186l-1.484,0.216l0.707,5.19Z" style="fill:#231f20;fill-rule:nonzero;"/><path d="M45.366,195.028l1.654,-0.222l-0.721,-5.196l-1.596,0.221l0.663,5.197Z" style="fill:#231f20;fill-rule:nonzero;"/><path d="M46.354,202.766l1.718,-0.218l-0.701,-5.199l-1.679,0.22l0.662,5.197Z" style="fill:#231f20;fill-rule:nonzero;"/><path d="M47.276,210.511l1.755,-0.209l-0.643,-5.208l-1.733,0.216l0.621,5.201Z" style="fill:#231f20;fill-rule:nonzero;"/><path d="M48.167,218.261l1.765,-0.197l-0.282,-2.607c-0.153,-1.303 -0.306,-2.605 -0.306,-2.605l-1.761,0.205c0,0 0.151,1.301 0.302,2.601c0.141,1.302 0.282,2.603 0.282,2.603" style="fill:#231f20;fill-rule:nonzero;"/><path d="M49.014,226.016l1.75,-0.181l-0.557,-5.217l-1.763,0.191l0.57,5.207Z" style="fill:#231f20;fill-rule:nonzero;"/><path d="M49.793,233.778l1.709,-0.162l-0.472,-5.226l-1.739,0.176l0.502,5.212Z" style="fill:#231f20;fill-rule:nonzero;"/><path d="M50.554,241.539l1.639,-0.141l-0.462,-5.226l-1.689,0.156l0.512,5.211Z" style="fill:#231f20;fill-rule:nonzero;"/><path d="M51.209,249.312l1.539,-0.117l-0.364,-5.235l-1.61,0.133l0.435,5.219Z" style="fill:#231f20;fill-rule:nonzero;"/><path d="M51.854,257.086l1.408,-0.093c-0.001,0 -0.062,-1.31 -0.16,-2.618c-0.089,-1.31 -0.178,-2.618 -0.178,-2.618l-1.5,0.109c0,0 0.111,1.305 0.222,2.61c0.12,1.303 0.208,2.61 0.208,2.61" style="fill:#231f20;fill-rule:nonzero;"/><path d="M52.383,264.867l1.243,-0.067l-0.242,-5.243l-1.358,0.084l0.357,5.226Z" style="fill:#231f20;fill-rule:nonzero;"/><path d="M52.88,272.653l1.041,-0.044l-0.065,-2.623c-0.058,-1.311 -0.116,-2.62 -0.116,-2.62l-1.18,0.059c0,0 0.092,1.307 0.184,2.613c0.068,1.307 0.136,2.615 0.136,2.615" style="fill:#231f20;fill-rule:nonzero;"/><path d="M53.275,280.445l0.796,-0.023l-0.098,-5.247l-0.966,0.038l0.268,5.232Z" style="fill:#231f20;fill-rule:nonzero;"/><path d="M53.6,288.243l0.502,-0.008l0.029,-2.623c0.012,-0.656 0.011,-1.311 -0.003,-1.803c-0.007,-0.492 -0.013,-0.819 -0.013,-0.819l-0.705,0.018c0,0 0.017,0.326 0.044,0.817c0.031,0.49 0.057,1.145 0.071,1.8c0.037,1.308 0.075,2.618 0.075,2.618" style="fill:#231f20;fill-rule:nonzero;"/><path d="M53.849,296.045l0.142,0l0.078,-5.243l-0.391,0.004l0.171,5.239Z" style="fill:#231f20;fill-rule:nonzero;"/><g><clipPath id="_clip29"><rect x="172.667" y="67.496" width="81.665" height="186.837"/></clipPath><g clip-path="url(#_clip29)"><g opacity="0.399994"><clipPath id="_clip30"><rect x="172.667" y="67.496" width="81.665" height="186.838"/></clipPath><g clip-path="url(#_clip30)"><path d="M172.693,81.013c-1.4,0.627 54.106,30.917 54.106,30.917l20.923,140.945l6.611,1.458l-24.357,-186.838c0,0 -36.871,4.376 -57.283,13.518" style="fill:#262261;fill-rule:nonzero;"/></g></g></g></g><path d="M260.169,255.47c0,0 0.499,-225.059 -8.733,-242.945c0,0 -60.581,18.462 -109.047,30.002c0,0 84.814,43.849 103.854,68.659l4.363,144.29l9.563,-0.006Z" style="fill:#ed1c24;fill-rule:nonzero;"/><path d="M260.41,255.712l-9.803,0.341l-0.544,0.018l-0.032,-0.577l-1.011,-18.022l-0.909,-18.026l-0.886,-18.026c-0.308,-6.008 -0.562,-12.018 -0.825,-18.027l-0.775,-18.03l-0.722,-18.03l-1.313,-36.066l0.548,1.536c-1.497,-1.903 -3.215,-3.722 -5.009,-5.488c-1.801,-1.763 -3.702,-3.459 -5.654,-5.109c-3.908,-3.297 -8.006,-6.424 -12.193,-9.442c-4.19,-3.016 -8.436,-5.978 -12.75,-8.847c-4.311,-2.874 -8.675,-5.681 -13.073,-8.436c-8.799,-5.511 -17.732,-10.826 -26.746,-16.005l-13.561,-7.705c-4.535,-2.538 -9.097,-5.055 -13.664,-7.498l-4.606,-2.465l5.052,-1.191c4.58,-1.081 9.158,-2.167 13.748,-3.21c2.292,-0.534 4.592,-1.034 6.875,-1.609l6.861,-1.677c4.571,-1.136 9.16,-2.198 13.714,-3.402l13.685,-3.528l13.657,-3.644l13.619,-3.782l13.579,-3.926c4.529,-1.299 9.03,-2.696 13.535,-4.066l0.64,-0.195l0.289,0.587c0.628,1.271 0.945,2.523 1.261,3.783c0.301,1.259 0.542,2.519 0.76,3.78c0.443,2.52 0.802,5.044 1.117,7.57c0.627,5.054 1.097,10.114 1.575,15.174c0.912,10.122 1.608,20.256 2.212,30.392l0.842,15.208c0.277,5.07 0.485,10.141 0.668,15.213c0.203,5.072 0.36,10.144 0.475,15.217c0.121,5.073 0.26,10.146 0.318,15.22c0.134,10.147 0.294,20.293 0.314,30.44l0.03,15.219c0.016,5.074 -0.038,10.147 -0.065,15.22l-0.142,15.219l-0.242,15.218l-0.366,15.217c-0.112,5.073 -0.276,10.145 -0.474,15.216l-0.009,0.241ZM259.911,255.212c-0.177,-4.984 -0.346,-9.97 -0.472,-14.954l-0.45,-15.211l-0.749,-30.418l-1.33,-60.822l-0.322,-15.202c-0.12,-5.067 -0.217,-10.134 -0.296,-15.201l-0.263,-15.201l-0.3,-15.199c-0.249,-10.131 -0.558,-20.26 -1.098,-30.372c-0.261,-5.055 -0.624,-10.106 -1.14,-15.131c-0.26,-2.512 -0.549,-5.02 -0.944,-7.501c-0.204,-1.24 -0.431,-2.473 -0.711,-3.683c-0.284,-1.198 -0.606,-2.421 -1.099,-3.43l0.929,0.392l-54.256,16.047l-13.592,3.929c-4.526,1.328 -9.079,2.564 -13.619,3.848l-6.816,1.91c-2.267,0.652 -4.556,1.23 -6.835,1.843c-4.561,1.221 -9.133,2.398 -13.703,3.582l0.447,-3.655c4.675,2.37 9.291,4.786 13.906,7.237c4.609,2.454 9.209,4.927 13.764,7.482c9.122,5.088 18.169,10.318 27.104,15.758c4.467,2.722 8.904,5.497 13.3,8.348c4.39,2.86 8.76,5.764 13.024,8.842c4.27,3.068 8.469,6.26 12.532,9.675c4.041,3.442 8.018,7.03 11.427,11.445l0.527,0.683l0.021,0.854l0.869,36.079l0.369,18.041l0.316,18.044c0.1,6.014 0.209,12.028 0.265,18.044l0.205,18.046l0.181,18.048l0.08,18.05l-0.576,-0.559l9.305,0.312Z" style="fill:#231f20;fill-rule:nonzero;"/><path d="M157.051,40.849c0,0 66.162,40.47 91.917,59.38l5.429,159.813l-10.208,-157.437l-93.932,-60.078l6.794,-1.678Z" style="fill:#be1e2d;fill-rule:nonzero;"/></g></svg>