<?xml version="1.0" standalone="no"?><!DOCTYPE svg PUBLIC "-//W3C//DTD SVG 1.1//EN" "http://www.w3.org/Graphics/SVG/1.1/DTD/svg11.dtd"><svg width="100%" height="100%" viewBox="0 0 173 185" version="1.1" xmlns="http://www.w3.org/2000/svg" xmlns:xlink="http://www.w3.org/1999/xlink" xml:space="preserve" style="fill-rule:evenodd;clip-rule:evenodd;stroke-miterlimit:10;"><g id="Layer 1"><path d="M69.183,108.097c0,0 -9.624,4.806 -26.624,7.806c-17,3 -27.5,34.277 -27.5,34.277l0,20l134.5,0c0,0 5.5,-45.5 -15.5,-50c-21,-4.5 -28.598,-12.083 -28.598,-12.083l-36.278,0Z" style="fill:#7e1315;fill-rule:nonzero;"/><path d="M43.714,117.209c0,0 -6.353,10.692 -1.351,25.679c0,0 0.649,3.384 3.508,3.868c2.86,0.483 4.982,-1.45 4.982,-1.45c0,0 -2.052,-27.578 1.324,-31.448c0,0 -6.337,-0.311 -8.463,3.351" style="fill:#50120c;fill-rule:nonzero;"/><path d="M90.041,123.798l-0.121,0.058l-0.129,0.062l-0.13,0.062l-0.133,0.062l-0.135,0.063l-0.136,0.063l-0.14,0.064l-0.141,0.064l-0.143,0.064l-0.145,0.065l-0.147,0.066l-0.15,0.065l-0.151,0.067l-0.154,0.066l-0.156,0.067l-0.157,0.068l-0.16,0.068l-0.161,0.068l-0.164,0.069l-0.165,0.069l-0.168,0.07l-0.169,0.07l-0.172,0.071l-0.173,0.07l-0.175,0.072l-0.177,0.072l-0.178,0.072l-0.181,0.072l-0.182,0.073l-0.185,0.074l-0.185,0.073l-0.188,0.074l-0.189,0.075l-0.191,0.075l-0.193,0.075l-0.194,0.076l-0.196,0.076l-0.198,0.076l-0.199,0.077l-0.201,0.077l-0.202,0.077l-0.204,0.078l-0.206,0.078l-0.207,0.078l-0.208,0.079l-0.21,0.079l-0.211,0.079l-0.213,0.08l-0.214,0.079l-0.215,0.081l-0.217,0.08l-0.218,0.081l-0.219,0.081l-0.22,0.081l-0.222,0.081l-0.223,0.082l-0.225,0.082l-0.225,0.082l-0.454,0.165l-0.459,0.166l-0.463,0.167l-0.467,0.167l-0.471,0.169l-0.475,0.169l-0.478,0.169l-0.482,0.17l-0.484,0.171l-0.488,0.171l-0.491,0.172l-0.493,0.171l-0.496,0.173l-0.498,0.172l-0.5,0.173l-0.502,0.173l-0.503,0.173l-0.505,0.173l-0.507,0.173l-0.507,0.173l-0.509,0.172l-0.509,0.173l-0.51,0.173l-0.511,0.172l-0.51,0.172l-0.511,0.171l-0.51,0.171l-0.51,0.171l-0.51,0.17l-0.509,0.17l-0.507,0.169l-0.507,0.168l-0.506,0.168l-0.504,0.166l-0.503,0.166l-0.5,0.165l-0.499,0.164l-0.496,0.163l-0.494,0.162l-0.492,0.161l-0.488,0.16l-0.486,0.159l-0.482,0.157l-0.48,0.156l-0.475,0.155l-0.472,0.153l-0.469,0.152l-0.464,0.15l-0.46,0.149l-0.905,0.292l-0.887,0.285l-0.866,0.278l-0.843,0.271l-0.82,0.262l-0.794,0.253l-0.768,0.244l-0.739,0.235l-0.71,0.225l-0.678,0.215l-0.645,0.204l-0.611,0.192l-0.575,0.182l-0.538,0.169l-0.499,0.156l-0.319,0.1l6.732,29.894l-4.878,1.098l-7.745,-34.397l2.314,-0.717l0.316,-0.098l0.514,-0.16l0.698,-0.218l0.415,-0.13l0.457,-0.143l0.496,-0.156l0.536,-0.168l0.573,-0.18l0.609,-0.192l0.643,-0.203l0.675,-0.214l0.707,-0.224l0.737,-0.234l0.764,-0.244l0.792,-0.252l0.817,-0.261l0.84,-0.27l0.863,-0.277l0.883,-0.284l0.903,-0.291l0.457,-0.148l0.462,-0.15l0.467,-0.151l0.47,-0.153l0.474,-0.154l0.477,-0.155l0.48,-0.157l0.484,-0.158l0.486,-0.159l0.49,-0.16l0.491,-0.161l0.494,-0.163l0.497,-0.163l0.498,-0.164l0.5,-0.165l0.502,-0.166l0.503,-0.167l0.504,-0.167l0.505,-0.168l0.506,-0.169l0.507,-0.169l0.507,-0.17l0.507,-0.17l0.508,-0.17l0.507,-0.171l0.507,-0.171l0.507,-0.172l0.506,-0.171l0.505,-0.172l0.504,-0.172l0.502,-0.171l0.502,-0.172l0.499,-0.172l0.498,-0.171l0.496,-0.171l0.494,-0.171l0.491,-0.171l0.488,-0.17l0.486,-0.17l0.483,-0.169l0.48,-0.169l0.476,-0.168l0.473,-0.168l0.469,-0.167l0.465,-0.166l0.461,-0.165l0.456,-0.165l0.453,-0.163l0.447,-0.163l0.222,-0.081l0.221,-0.081l0.219,-0.08l0.218,-0.08l0.217,-0.08l0.215,-0.079l0.214,-0.08l0.213,-0.078l0.211,-0.079l0.209,-0.078l0.209,-0.078l0.206,-0.078l0.206,-0.077l0.203,-0.077l0.202,-0.076l0.201,-0.076l0.199,-0.076l0.197,-0.076l0.195,-0.075l0.194,-0.074l0.192,-0.074l0.191,-0.074l0.188,-0.074l0.187,-0.072l0.185,-0.073l0.183,-0.072l0.181,-0.072l0.179,-0.071l0.178,-0.07l0.175,-0.07l0.173,-0.07l0.172,-0.069l0.169,-0.069l0.167,-0.068l0.165,-0.068l0.163,-0.067l0.161,-0.066l0.158,-0.066l0.157,-0.066l0.154,-0.064l0.151,-0.065l0.15,-0.063l0.147,-0.063l0.145,-0.063l0.142,-0.062l0.14,-0.061l0.137,-0.06l0.135,-0.06l0.132,-0.059l0.13,-0.058l0.127,-0.058l0.124,-0.057l0.122,-0.056l0.119,-0.055l0.116,-0.055l0.113,-0.054l0.111,-0.053l0.112,-0.054l2.18,4.5Z" style="fill:#3b2314;"/><path d="M110.893,115.656c0,4.175 -3.076,7.559 -6.871,7.559l-30.258,0c-3.795,0 -6.871,-3.384 -6.871,-7.559c0,-4.175 3.076,-7.559 6.871,-7.559l30.258,0c3.795,0 6.871,3.384 6.871,7.559" style="fill:#7e1315;fill-rule:nonzero;"/><g><clipPath id="_clip1"><rect x="75.362" y="114.915" width="63.976" height="55.265"/></clipPath><g clip-path="url(#_clip1)"><g opacity="0.300003"><clipPath id="_clip2"><rect x="75.362" y="114.915" width="63.977" height="55.265"/></clipPath><g clip-path="url(#_clip2)"><path d="M91.954,123.215c0,0 -26.333,31.131 -12.651,46.965l55.901,0c0,0 12.063,-33.035 -5.024,-39.934c-17.09,-6.9 -26.64,-8.088 -28.567,-13.827c-1.927,-5.739 -9.659,6.796 -9.659,6.796" style="fill:#ec008c;fill-rule:nonzero;"/></g></g></g></g><path d="M69.183,108.097l2.043,7.559c0,0 4.333,7.559 15,7.559c10.667,0 22.491,-13.068 22.491,-13.068l-2.491,-1.8l-37.043,-0.25Z" style="fill:#c49a6b;fill-rule:nonzero;"/><g><clipPath id="_clip3"><rect x="69.51" y="98.406" width="32.3" height="16.75"/></clipPath><g clip-path="url(#_clip3)"><g opacity="0.399994"><clipPath id="_clip4"><rect x="69.51" y="98.406" width="32.3" height="16.75"/></clipPath><g clip-path="url(#_clip4)"><path d="M101.81,106.781c0,4.625 -7.231,8.375 -16.15,8.375c-8.919,0 -16.15,-3.75 -16.15,-8.375c0,-4.625 7.231,-8.375 16.15,-8.375c8.919,0 16.15,3.75 16.15,8.375" style="fill:#231f20;fill-rule:nonzero;"/></g></g></g></g><path d="M122.56,66.013c0,26.142 -16.118,47.333 -36,47.333c-19.882,0 -36,-21.191 -36,-47.333c0,-26.142 16.118,-47.333 36,-47.333c19.882,0 36,21.191 36,47.333" style="fill:#a2896e;fill-rule:nonzero;"/><path d="M122.56,66.013c0,26.142 -16.118,47.333 -36,47.333c-19.882,0 -36,-21.191 -36,-47.333c0,-26.142 16.118,-47.333 36,-47.333c19.882,0 36,21.191 36,47.333Z" style="fill:none;stroke-width:1px;stroke:#231f20;"/><path d="M122.56,63.197c0,26.611 -15.279,48.185 -34.125,48.185c-18.846,0 -34.125,-21.574 -34.125,-48.185c0,-26.611 15.279,-48.184 34.125,-48.184c18.846,0 34.125,21.573 34.125,48.184" style="fill:#e5ba93;fill-rule:nonzero;"/><clipPath id="_clip5"><path d="M117.611,58.013c13.568,12 15.337,-24 -12.388,-39.333c0,0 -1.179,27.334 12.388,39.333Z"/></clipPath><g clip-path="url(#_clip5)"><path d="M114.931,75.927l-19.534,-53.671l29.38,-10.693l19.534,53.67l-29.38,10.694Z" style="fill:url(#_Linear6);fill-rule:nonzero;"/></g><path d="M105.223,18.68c0,0 -1.18,27.333 12.388,39.333c13.568,12 15.337,-24 -12.388,-39.333Z" style="fill:none;stroke-width:1px;stroke:#231f20;"/><path d="M82.227,12.346c-39.667,3.787 -30.45,41.694 -30.45,41.694c12.783,-31.361 14.257,-24.862 14.923,-26.863c0.069,-0.205 0.097,-0.354 0.106,-0.454c0.175,0.555 1.497,2.437 9.495,3.615c12.074,1.778 31.593,-8.992 31.593,-8.992c0,0 4.903,-9.493 -16.314,-9.492c-2.68,0 -5.779,0.151 -9.353,0.492Z" style="fill:url(#_Linear7);fill-rule:nonzero;"/><path d="M51.777,54.04c0,0 -9.217,-37.907 30.45,-41.693c31.883,-3.043 25.667,9 25.667,9c0,0 -19.518,10.769 -31.593,8.991c-12.074,-1.778 -8.934,-5.16 -9.601,-3.16c-0.666,2 -2.14,-4.498 -14.923,26.862Z" style="fill:none;stroke-width:1px;stroke:#231f20;"/><g><clipPath id="_clip8"><rect x="75.362" y="63.198" width="12.287" height="16.574"/></clipPath><g clip-path="url(#_clip8)"><g opacity="0.399994"><clipPath id="_clip9"><rect x="75.362" y="63.198" width="12.287" height="16.574"/></clipPath><g clip-path="url(#_clip9)"><path d="M85.956,69.111c2.339,4.383 2.243,8.999 -0.216,10.311c-2.458,1.312 -6.347,-1.178 -8.686,-5.562c-2.338,-4.383 -2.243,-9 0.215,-10.312c2.459,-1.312 6.348,1.18 8.687,5.563" style="fill:#a2896e;fill-rule:nonzero;"/></g></g></g></g><path d="M60.56,51.013l12.667,-4.333l1.333,4.333c0,0 -4.866,-1.193 -14,0Z" style="fill:#231f20;fill-rule:nonzero;stroke-width:1px;stroke:#231f20;"/><path d="M83.378,75.909c0,0 -16.194,5.973 -15.817,9.669c0.376,3.697 16.57,-1.422 17.7,-1.422c1.13,0 9.038,2.682 11.298,2.763c2.26,0.081 11.675,-1.625 -13.181,-11.01Z" style="fill:#231f20;fill-rule:nonzero;stroke-width:1px;stroke:#231f20;"/><path d="M79.616,56.68c0,0 -6.056,20 1.944,17.333c8,-2.666 5.667,0 5.667,0c0,0 11.249,1.297 -0.085,-6.159" style="fill:#e5ba93;fill-rule:nonzero;stroke-width:1px;stroke:#231f20;"/><path d="M104.605,51.013l-14.777,-4.333l-1.556,4.333c0,0 5.677,-1.193 16.333,0Z" style="fill:#231f20;fill-rule:nonzero;stroke-width:1px;stroke:#231f20;"/><path d="M72.893,57.374c0,1.841 -1.493,3.333 -3.333,3.333c-1.841,0 -3.334,-1.492 -3.334,-3.333c0,-1.841 1.493,-3.333 3.334,-3.333c1.84,0 3.333,1.492 3.333,3.333" style="fill:#231f20;fill-rule:nonzero;"/><path d="M72.893,57.374c0,1.841 -1.493,3.333 -3.333,3.333c-1.841,0 -3.334,-1.492 -3.334,-3.333c0,-1.841 1.493,-3.333 3.334,-3.333c1.84,0 3.333,1.492 3.333,3.333Z" style="fill:none;stroke-width:1px;stroke:#231f20;"/><path d="M98.893,57.374c0,1.841 -1.493,3.333 -3.333,3.333c-1.841,0 -3.334,-1.492 -3.334,-3.333c0,-1.841 1.493,-3.333 3.334,-3.333c1.84,0 3.333,1.492 3.333,3.333" style="fill:#231f20;fill-rule:nonzero;"/><path d="M98.893,57.374c0,1.841 -1.493,3.333 -3.333,3.333c-1.841,0 -3.334,-1.492 -3.334,-3.333c0,-1.841 1.493,-3.333 3.334,-3.333c1.84,0 3.333,1.492 3.333,3.333Z" style="fill:none;stroke-width:1px;stroke:#231f20;"/><path d="M41.545,116.121c0,0 -6.985,11.059 -1.485,26.559c0,0 0.713,3.5 3.857,4c3.143,0.5 5.477,-1.5 5.477,-1.5c0,0 -2.256,-26.995 1.455,-30.997c0,0 -6.967,-1.849 -9.304,1.938" style="fill:#c49a6b;fill-rule:nonzero;"/><path d="M130.226,150.923c0,2.259 -1.831,4.09 -4.09,4.09l-17.442,0c-2.259,0 -4.09,-1.831 -4.09,-4.09c0,-2.259 1.831,-4.09 4.09,-4.09l17.442,0c2.259,0 4.09,1.831 4.09,4.09" style="fill:#bbbdc0;fill-rule:nonzero;"/><path d="M130.226,150.923c0,2.259 -1.831,4.09 -4.09,4.09l-17.442,0c-2.259,0 -4.09,-1.831 -4.09,-4.09c0,-2.259 1.831,-4.09 4.09,-4.09l17.442,0c2.259,0 4.09,1.831 4.09,4.09Z" style="fill:none;stroke-width:1px;stroke:#bbbdc0;"/><path d="M125.17,150.923c0,4.283 -3.472,7.754 -7.754,7.754c-4.283,0 -7.755,-3.471 -7.755,-7.754c0,-4.283 3.472,-7.754 7.755,-7.754c4.282,0 7.754,3.471 7.754,7.754Z" style="fill:none;stroke-width:1px;stroke:#231f20;"/><path d="M108.718,158.68c0,0 5.553,-16 8.698,-18c0,0 5.811,10 6.811,18l-5,-3.333l-10.509,3.333Z" style="fill:#8a5d3b;fill-rule:nonzero;stroke-width:1px;stroke:#231f20;"/></g><defs><linearGradient id="_Linear6" x1="0" y1="0" x2="1" y2="0" gradientUnits="userSpaceOnUse" gradientTransform="matrix(-15.5135,-42.623,42.623,-15.5135,123.377,60.3428)"><stop offset="0%" style="stop-color:#fff;stop-opacity:1"/><stop offset="100%" style="stop-color:#231f20;stop-opacity:1"/></linearGradient><linearGradient id="_Linear7" x1="0" y1="0" x2="1" y2="0" gradientUnits="userSpaceOnUse" gradientTransform="matrix(57.5337,0,0,57.5337,50.8491,32.9468)"><stop offset="0%" style="stop-color:#fff;stop-opacity:1"/><stop offset="100%" style="stop-color:#231f20;stop-opacity:1"/></linearGradient></defs></svg>